<svg viewBox="0 0 390 844" xmlns="http://www.w3.org/2000/svg">
  <rect width="390" height="844" fill="#F1F3F4"/>
  <ellipse cx="350" cy="80" rx="65" ry="52" fill="#E4EAEC" transform="rotate(9 350 80)"/>
  <circle cx="24" cy="130" r="6" fill="#D6E1E4"/>

  <path d="M40 62 L28 72 L40 82" fill="none" stroke="#1D2226" stroke-width="2.5" stroke-linecap="round" stroke-linejoin="round"/>
  <text x="32" y="132" font-size="21" font-weight="500" fill="#1D2226">Write about it</text>
  <text x="32" y="158" font-size="13" fill="#7B8681">Just describe it — we'll pull out the</text>
  <text x="32" y="178" font-size="13" fill="#7B8681">structured details and bullets for you.</text>

  <path d="M32 206 H358 C363 206 368 210 368 216 V520 C368 528 362 532 356 532 H36 C30 532 26 528 26 520 V216 C26 210 30 206 32 206 Z" fill="#FFFFFF" stroke="#E4E9EB"/>
  <text x="42" y="234" font-size="13" fill="#A9B2B6">e.g. "I spent two years at a fintech</text>
  <text x="42" y="254" font-size="13" fill="#A9B2B6">startup building their mobile app from</text>
  <text x="42" y="274" font-size="13" fill="#A9B2B6">scratch. I owned the whole onboarding</text>
  <text x="42" y="294" font-size="13" fill="#A9B2B6">flow and got signup completion up..."</text>

  <path d="M32 570 H326 C334 570 342 576 342 586 V608 C342 620 334 626 326 626 H48 C38 626 32 618 32 608 Z" fill="#2F4858"/>
  <text x="187" y="604" text-anchor="middle" font-size="15" font-weight="500" fill="#F1F3F4">Extract details</text>
</svg>
