<svg viewBox="0 0 390 844" xmlns="http://www.w3.org/2000/svg">
  <rect width="390" height="844" fill="#F1F3F4"/>
  <ellipse cx="360" cy="60" rx="60" ry="48" fill="#E4EAEC" transform="rotate(9 360 60)"/>

  <path d="M40 62 L28 72 L40 82" fill="none" stroke="#1D2226" stroke-width="2.5" stroke-linecap="round" stroke-linejoin="round"/>

  <circle cx="336" cy="72" r="22" fill="#DDE6E9"/>
  <circle cx="336" cy="72" r="22" fill="none" stroke="#2F4858" stroke-width="3" stroke-dasharray="104 38" transform="rotate(-90 336 72)"/>
  <text x="336" y="77" text-anchor="middle" font-size="13" font-weight="500" fill="#2F4858">92%</text>

  <text x="32" y="132" font-size="19" font-weight="500" fill="#1D2226">Senior Mobile Engineer</text>
  <text x="32" y="152" font-size="12" fill="#7B8681">Fintech startup · tailored 2 days ago</text>

  <line x1="32" y1="176" x2="358" y2="176" stroke="#E4E9EB"/>

  <text x="32" y="204" font-size="12" font-weight="500" fill="#7B8681">EXPERIENCE</text>

  <path d="M32 214 H358 C363 214 368 218 368 224 V270 C368 276 363 280 358 280 H36 C30 280 26 276 26 270 V224 C26 218 30 214 32 214 Z" fill="#FFFFFF" stroke="#E4E9EB"/>
  <text x="42" y="234" font-size="13" fill="#1D2226">Led migration to a new checkout flow,</text>
  <text x="42" y="252" font-size="13" fill="#1D2226">cutting cart abandonment by 18%</text>
  <path d="M44 264 H50 M44 264 A2 2 0 1 0 44.01 264" fill="#5B8AA6"/>
  <circle cx="46" cy="264" r="3" fill="#5B8AA6"/>
  <text x="56" y="268" font-size="10" fill="#5B8AA6">from: Senior Engineer, Acme Co.</text>

  <path d="M32 288 H358 C363 288 368 292 368 298 V330 C368 336 363 340 358 340 H36 C30 340 26 336 26 330 V298 C26 292 30 288 32 288 Z" fill="#FFFFFF" stroke="#E4E9EB"/>
  <text x="42" y="308" font-size="13" fill="#1D2226">Owned the mobile CI/CD pipeline</text>
  <circle cx="46" cy="324" r="3" fill="#5B8AA6"/>
  <text x="56" y="328" font-size="10" fill="#5B8AA6">from: Senior Engineer, Acme Co.</text>

  <text x="32" y="368" font-size="12" font-weight="500" fill="#7B8681">PROJECTS</text>
  <path d="M32 378 H358 C363 378 368 382 368 388 V420 C368 426 363 430 358 430 H36 C30 430 26 426 26 420 V388 C26 382 30 378 32 378 Z" fill="#FFFFFF" stroke="#E4E9EB"/>
  <text x="42" y="398" font-size="13" fill="#1D2226">Shipped the React Native rewrite</text>
  <circle cx="46" cy="414" r="3" fill="#5B8AA6"/>
  <text x="56" y="418" font-size="10" fill="#5B8AA6">from: On-device CV pipeline</text>

  <!-- actions -->
  <path d="M32 480 H190 C196 480 200 484 200 490 V512 C200 518 196 522 190 522 H32 Z" fill="none" stroke="#A9B2B6" stroke-width="1.3"/>
  <text x="111" y="506" text-anchor="middle" font-size="13" fill="#1D2226">Edit layout</text>
  <path d="M212 480 H358 C362 480 366 484 366 490 V512 C366 518 362 522 358 522 H212 Z" fill="#2F4858"/>
  <text x="289" y="506" text-anchor="middle" font-size="13" fill="#F1F3F4">Export</text>

  <text x="195" y="560" text-anchor="middle" font-size="13" fill="#A32D2D">Delete this resume</text>
</svg>
