<svg width="320" height="640" viewBox="0 0 320 640" xmlns="http://www.w3.org/2000/svg">
  <title>Tailor app home screen sampler</title>
  <rect x="1" y="1" width="318" height="638" rx="22" fill="#F1F3F4" stroke="#DEE3E5"/>

  <!-- ambient shapes -->
  <ellipse cx="270" cy="35" rx="95" ry="75" fill="#E4EAEC"/>
  <ellipse cx="300" cy="95" rx="42" ry="36" fill="#EAEFF0"/>
  <circle cx="22" cy="55" r="5" fill="#D6E1E4"/>
  <circle cx="10" cy="150" r="7" fill="#DCE5E8"/>
  <circle cx="30" cy="205" r="4" fill="#CBD8DC"/>
  <ellipse cx="300" cy="330" rx="34" ry="28" fill="#E4EAEC"/>
  <circle cx="295" cy="380" r="5" fill="#D6E1E4"/>
  <circle cx="16" cy="360" r="6" fill="#DCE5E8"/>
  <ellipse cx="20" cy="480" rx="30" ry="24" fill="#E9EEF0"/>
  <circle cx="300" cy="520" r="6" fill="#D6E1E4"/>
  <circle cx="12" cy="580" r="5" fill="#CBD8DC"/>
  <ellipse cx="280" cy="600" rx="26" ry="20" fill="#EAEFF0"/>

  <!-- header -->
  <text x="26" y="52" font-size="13" fill="#7B8681" font-family="Helvetica,Arial,sans-serif">Good evening</text>
  <text x="26" y="74" font-size="18" font-weight="500" fill="#1D2226" font-family="Helvetica,Arial,sans-serif">Vibhuti</text>
  <path d="M274,40 H294 Q298,40 298,44 V64 Q298,76 286,76 H266 Q262,76 262,72 V52 Q262,40 274,40 Z" fill="#E4E9EB"/>
  <circle cx="280" cy="52" r="5" fill="none" stroke="#4A5F6B" stroke-width="1.6"/>
  <path d="M270,64 Q280,55 290,64" fill="none" stroke="#4A5F6B" stroke-width="1.6"/>

  <!-- CTA card -->
  <path d="M34,176 H296 Q300,176 300,180 V280 Q300,294 286,294 H24 Q20,294 20,290 V190 Q20,176 34,176 Z" fill="#2F4858"/>
  <circle cx="272" cy="204" r="24" fill="#385A6B"/>
  <circle cx="261" cy="191" r="3" fill="#5B8AA6"/>
  <path d="M257,213 L291,197 L275,206 L282,227 Z" fill="#8FB4C6" transform="rotate(-8 274 212)"/>
  <text x="36" y="222" font-size="15" font-weight="500" fill="#FFFFFF" font-family="Helvetica,Arial,sans-serif">Shape a resume for</text>
  <text x="36" y="240" font-size="15" font-weight="500" fill="#FFFFFF" font-family="Helvetica,Arial,sans-serif">something new</text>
  <text x="36" y="260" font-size="12" fill="#B9CBD3" font-family="Helvetica,Arial,sans-serif">Paste a JD, we'll do the rest</text>
  <path d="M46,258 H141 Q144,258 144,261 V278 Q144,288 134,288 H39 Q36,288 36,285 V268 Q36,258 46,258 Z" fill="#FFFFFF"/>
  <text x="90" y="277" font-size="13" font-weight="500" fill="#2F4858" text-anchor="middle" font-family="Helvetica,Arial,sans-serif">Start tailoring</text>

  <!-- section header -->
  <text x="26" y="322" font-size="13" font-weight="500" fill="#7B8681" font-family="Helvetica,Arial,sans-serif">Where you've sent yourself lately</text>
  <path d="M232,315 Q238,309 242,314 Q246,318 251,311" stroke="#B9C4C8" stroke-width="1.6" fill="none" stroke-linecap="round"/>

  
  <g transform="rotate(-0.6 160 431.0)">
    <path d="M40,400 H288 Q292,400 292,404 V450 Q292,462 280,462 H32 Q28,462 28,458 V412 Q28,400 40,400 Z" fill="#FFFFFF" stroke="#E4E9EB" stroke-width="1"/>
    <text x="44" y="427" font-size="14" font-weight="500" fill="#1D2226" font-family="Helvetica,Arial,sans-serif">Senior Mobile Engineer</text>
    <text x="44" y="445" font-size="12" fill="#7B8681" font-family="Helvetica,Arial,sans-serif">Notion · 2 days ago</text>
    <g transform="translate(226,414) rotate(4 17 17)">
      <path d="M10,0 H31 Q34,0 34,3 V24 Q34,34 24,34 H3 Q0,34 0,31 V10 Q0,0 10,0 Z" fill="#DDE6E9"/>
      <text x="17" y="21" font-size="12" font-weight="500" fill="#2F4858" text-anchor="middle" font-family="Helvetica,Arial,sans-serif">87</text>
    </g>
  </g>
  <g transform="rotate(0.5 160 503.0)">
    <path d="M32,472 H280 Q292,472 292,484 V530 Q292,534 288,534 H40 Q28,534 28,522 V476 Q28,472 32,472 Z" fill="#FFFFFF" stroke="#E4E9EB" stroke-width="1"/>
    <text x="44" y="499" font-size="14" font-weight="500" fill="#1D2226" font-family="Helvetica,Arial,sans-serif">Flutter Developer</text>
    <text x="44" y="517" font-size="12" fill="#7B8681" font-family="Helvetica,Arial,sans-serif">Stripe · 6 days ago</text>
    <g transform="translate(226,486) rotate(-3 17 17)">
      <path d="M3,0 H24 Q34,0 34,10 V31 Q34,34 31,34 H10 Q0,34 0,24 V3 Q0,0 3,0 Z" fill="#DDE6E9"/>
      <text x="17" y="21" font-size="12" font-weight="500" fill="#2F4858" text-anchor="middle" font-family="Helvetica,Arial,sans-serif">74</text>
    </g>
  </g>
  <g transform="rotate(-0.4 160 575.0)">
    <path d="M40,544 H288 Q292,544 292,548 V594 Q292,606 280,606 H32 Q28,606 28,602 V556 Q28,544 40,544 Z" fill="#FFFFFF" stroke="#E4E9EB" stroke-width="1"/>
    <text x="44" y="571" font-size="14" font-weight="500" fill="#1D2226" font-family="Helvetica,Arial,sans-serif">React Native Engineer</text>
    <text x="44" y="589" font-size="12" fill="#7B8681" font-family="Helvetica,Arial,sans-serif">Linear · 1 week ago</text>
    <g transform="translate(226,558) rotate(2 17 17)">
      <path d="M10,0 H31 Q34,0 34,3 V24 Q34,34 24,34 H3 Q0,34 0,31 V10 Q0,0 10,0 Z" fill="#DDE6E9"/>
      <text x="17" y="21" font-size="12" font-weight="500" fill="#2F4858" text-anchor="middle" font-family="Helvetica,Arial,sans-serif">91</text>
    </g>
  </g>

  <!-- bottom nav -->
  <rect x="1" y="576" width="318" height="63" fill="#FFFFFF" stroke="#E4E9EB"/>
  <path d="M52,600 L60,592 L68,600 L68,607 L52,607 Z" fill="none" stroke="#2F4858" stroke-width="1.6" stroke-linejoin="round"/>
    <rect x="57" y="601" width="6" height="6" fill="none" stroke="#2F4858" stroke-width="1.4"/>
  <text x="60" y="624" font-size="9" font-weight="500" fill="#2F4858" text-anchor="middle" font-family="Helvetica,Arial,sans-serif">Home</text>
  <path d="M124,596 h6 l2,3 h9 v9 h-17 z" fill="none" stroke="#A9B2B6" stroke-width="1.6" stroke-linejoin="round"/>
  <text x="133" y="624" font-size="9" fill="#A9B2B6" text-anchor="middle" font-family="Helvetica,Arial,sans-serif">Bank</text>
  <rect x="194" y="592" width="12" height="16" rx="1.5" fill="none" stroke="#A9B2B6" stroke-width="1.6"/>
    <line x1="197" y1="597" x2="203" y2="597" stroke="#A9B2B6" stroke-width="1.3"/>
    <line x1="197" y1="601" x2="203" y2="601" stroke="#A9B2B6" stroke-width="1.3"/>
  <text x="200" y="624" font-size="9" fill="#A9B2B6" text-anchor="middle" font-family="Helvetica,Arial,sans-serif">Resumes</text>
  <circle cx="265" cy="600" r="6" fill="none" stroke="#A9B2B6" stroke-width="1.6"/>
    <circle cx="265" cy="600" r="2" fill="#A9B2B6"/>
  <text x="265" y="624" font-size="9" fill="#A9B2B6" text-anchor="middle" font-family="Helvetica,Arial,sans-serif">Profile</text>
</svg>