<svg viewBox="0 0 390 844" xmlns="http://www.w3.org/2000/svg">
  <rect width="390" height="844" fill="#F1F3F4"/>
  <ellipse cx="30" cy="70" rx="65" ry="50" fill="#EAEFF0" transform="rotate(-8 30 70)"/>

  <path d="M40 62 L28 72 L40 82" fill="none" stroke="#1D2226" stroke-width="2.5" stroke-linecap="round" stroke-linejoin="round"/>
  <text x="32" y="132" font-size="21" font-weight="500" fill="#1D2226">Add a project</text>

  <text x="32" y="168" font-size="12" fill="#7B8681">Project name</text>
  <path d="M32 176 H358 C362 176 366 180 366 184 V208 C366 212 362 216 358 216 H36 C32 216 28 212 28 208 V184 C28 180 32 176 32 176 Z" fill="#FFFFFF" stroke="#E4E9EB"/>
  <text x="42" y="200" font-size="13" fill="#A9B2B6">On-device CV pipeline</text>

  <text x="32" y="238" font-size="12" fill="#7B8681">Your role / context</text>
  <path d="M32 246 H358 C362 246 366 250 366 254 V278 C366 282 362 286 358 286 H36 C32 286 28 282 28 278 V254 C28 250 32 246 32 246 Z" fill="#FFFFFF" stroke="#E4E9EB"/>
  <text x="42" y="270" font-size="13" fill="#A9B2B6">Personal project</text>

  <text x="32" y="308" font-size="12" fill="#7B8681">Timeframe</text>
  <path d="M32 316 H358 C362 316 366 320 366 324 V348 C366 352 362 356 358 356 H36 C32 356 28 352 28 348 V324 C28 320 32 316 32 316 Z" fill="#FFFFFF" stroke="#E4E9EB"/>
  <text x="42" y="340" font-size="13" fill="#A9B2B6">2023</text>

  <text x="32" y="378" font-size="12" fill="#7B8681">What was it, and what did you build?</text>
  <path d="M32 386 H358 C362 386 366 390 366 394 V500 C366 506 362 510 358 510 H36 C32 510 28 506 28 500 V394 C28 390 32 386 32 386 Z" fill="#FFFFFF" stroke="#E4E9EB"/>
  <text x="42" y="410" font-size="13" fill="#A9B2B6">On-device resume/document scanner</text>
  <text x="42" y="430" font-size="13" fill="#A9B2B6">using TensorFlow Lite, no server calls...</text>

  <path d="M32 550 H326 C334 550 342 556 342 566 V588 C342 600 334 606 326 606 H48 C38 606 32 598 32 588 Z" fill="#2F4858"/>
  <text x="187" y="584" text-anchor="middle" font-size="15" font-weight="500" fill="#F1F3F4">Save and extract bullets</text>
</svg>
